<?xml version="1.0" standalone="no"?>
<!DOCTYPE svg PUBLIC "-//W3C//DTD SVG 20010904//EN"
 "http://www.w3.org/TR/2001/REC-SVG-20010904/DTD/svg10.dtd">
<svg version="1.0" xmlns="http://www.w3.org/2000/svg"
 width="700.000000pt" height="700.000000pt" viewBox="0 0 700.000000 700.000000"
 preserveAspectRatio="xMidYMid meet">
<metadata>
Created by potrace 1.11, written by Peter Selinger 2001-2013
</metadata>
<g transform="translate(0.000000,700.000000) scale(0.100000,-0.100000)"
fill="#000000" stroke="none">
<path d="M3417 6454 c-1 -1 -51 -4 -112 -8 -60 -3 -128 -8 -150 -11 -50 -6
-187 -27 -200 -30 -5 -1 -28 -5 -50 -10 -119 -23 -197 -44 -325 -85 -886 -287
-1584 -984 -1879 -1878 -45 -136 -100 -361 -116 -475 -3 -27 -8 -58 -11 -70
-26 -138 -26 -600 1 -787 13 -91 29 -184 42 -240 8 -36 17 -74 19 -84 11 -55
61 -216 101 -326 216 -589 624 -1094 1168 -1445 353 -229 853 -404 1255 -440
36 -3 83 -8 105 -11 55 -8 374 -7 460 0 355 31 605 92 940 227 28 12 104 48
170 81 66 34 130 66 142 72 13 6 23 14 23 19 0 4 4 7 10 7 5 0 36 16 67 37
342 216 644 507 869 838 124 182 252 436 329 650 42 117 106 343 118 420 3 17
10 57 15 90 30 170 36 250 37 490 0 191 -4 271 -19 385 -14 109 -19 139 -26
170 -5 19 -12 53 -16 75 -5 35 -35 153 -62 250 -8 29 -7 30 60 61 326 148 567
479 604 829 70 652 -429 1206 -1073 1190 -119 -3 -142 -6 -258 -36 -200 -51
-406 -186 -548 -359 l-36 -45 -33 19 c-220 126 -401 209 -593 274 -82 28 -222
69 -263 77 -9 2 -51 10 -92 18 -103 22 -127 26 -190 33 -30 3 -66 7 -80 10
-40 7 -396 23 -403 18z m2666 -298 c352 -68 623 -385 632 -742 3 -112 -8 -188
-41 -282 -81 -235 -260 -410 -500 -491 -81 -27 -141 -35 -254 -35 -329 2 -622
219 -728 540 -27 79 -35 133 -35 234 0 180 43 317 148 466 111 156 310 283
495 314 75 13 204 11 283 -4z m-2401 -1026 c24 -5 65 -11 91 -14 108 -15 290
-73 423 -137 74 -35 242 -133 254 -148 3 -4 25 -21 50 -39 123 -89 311 -304
407 -467 100 -168 185 -401 208 -570 3 -27 9 -66 12 -85 8 -50 7 -296 -1 -355
-4 -27 -9 -65 -11 -84 -10 -68 -46 -208 -77 -291 -160 -440 -526 -810 -965
-976 -85 -32 -232 -71 -298 -79 -27 -4 -67 -10 -87 -15 -60 -13 -384 -4 -468
13 -182 37 -302 77 -445 149 -79 40 -195 107 -205 119 -3 3 -30 24 -60 46
-135 98 -306 286 -401 441 -123 198 -208 438 -234 664 -15 129 -11 333 9 446
3 17 8 45 11 61 35 206 155 474 295 662 238 320 551 527 950 629 125 33 435
49 542 30z"/>
</g>
</svg>
